<?xml version="1.0" encoding="UTF-8"?>
<svg width="600px" height="361px" viewBox="0 0 600 361" version="1.1" xmlns="http://www.w3.org/2000/svg" xmlns:xlink="http://www.w3.org/1999/xlink">
    <!-- Generator: Sketch 48.2 (47327) - http://www.bohemiancoding.com/sketch -->
    <title>Brad_and_Butter</title>
    <desc>Created with Sketch.</desc>
    <defs>
        <path d="M281.401838,345.347206 C384.019678,303.88609 484.265584,255.110846 582.139555,199.021475 C596.809327,192.132063 601.29053,181.495169 592.142295,175.191611 L443.439818,69.8727456 C440.778134,67.939702 439.105811,65.8236137 438.556761,63.7056969 C422.938011,11.1868905 333.004506,-5.99679439 169.49725,4.65050316 C5.15173454,13.1262199 -22.5460209,60.1147615 87.1448905,138.116656 C91.27877,140.81724 94.7670215,144.01984 97.3233194,147.473727 L239.221524,337.572084 C247.986343,349.20731 263.869582,352.430837 281.401838,345.347206 Z" id="path-1"></path>
        <path d="M120.817709,215.48635 C138.272849,234.305262 181.085678,222.306034 223.367664,196.743423 C332.978164,196.743423 237.643624,132.996749 246.929069,126.719601 C298.165893,98.98456 221.024525,108.567656 246.929069,94.2702668 C271.944315,82.6547175 267.735084,51.8374709 223.367664,51.8374709 C218.377041,52.4776444 220.278611,23.3109728 188.803491,16.3716758 C99.4266343,-8.5335361 27.4673878,-8.67603585 6.76044953,41.7046727 C-1.1034503,73.36472 45.5644503,77.2012182 0.897468167,156.031962 C-5.82396816,188.73778 27.5776869,235.726563 49.1238555,242.651293 C100.005031,249.808728 99.2327867,225.79249 120.817709,215.48635 Z" id="path-2"></path>
        <filter x="-3.8%" y="-4.3%" width="107.6%" height="108.6%" filterUnits="objectBoundingBox" id="filter-3">
            <feMorphology radius="1" operator="erode" in="SourceAlpha" result="shadowSpreadInner1"></feMorphology>
            <feGaussianBlur stdDeviation="1.5" in="shadowSpreadInner1" result="shadowBlurInner1"></feGaussianBlur>
            <feOffset dx="8" dy="1" in="shadowBlurInner1" result="shadowOffsetInner1"></feOffset>
            <feComposite in="shadowOffsetInner1" in2="SourceAlpha" operator="arithmetic" k2="-1" k3="1" result="shadowInnerInner1"></feComposite>
            <feColorMatrix values="0 0 0 0 1   0 0 0 0 0.849821772   0 0 0 0 0.435329861  0 0 0 1 0" type="matrix" in="shadowInnerInner1"></feColorMatrix>
        </filter>
        <path d="M87.9714512,40.6247064 L136.134655,39.6937227 C151.928107,39.1783762 169.169898,47.8618617 174.921807,58.8596481 L192.818373,89.5022223 C198.960036,98.6037755 191.196314,107.132722 175.379404,109.158244 L127.95546,114.623911 C112.347391,116.018018 94.9325922,107.729793 88.9068123,96.1483968 L70.5653712,60.8120677 C64.2330146,49.2470336 71.9056115,40.4660408 87.9714512,40.6247064 Z" id="path-4"></path>
    </defs>
    <g id="Artboard" stroke="none" stroke-width="1" fill="none" fill-rule="evenodd" transform="translate(-78.000000, -58.000000)">
        <g id="Brad_and_Butter" transform="translate(78.000000, 58.000000)">
            <g id="BREAD" style="mix-blend-mode: darken;">
                <use fill="#E6C18F" fill-rule="evenodd" style="mix-blend-mode: color;" xlink:href="#path-1"></use>
                <use stroke="#967D5B" stroke-width="3" xlink:href="#path-1"></use>
            </g>
            <path d="M466.900742,262.408942 L277.267716,355.185111 C256.375973,365.406199 231.177467,359.532726 216.958141,341.127662 L137.608651,238.420094 L78.866597,159.511211 C23.3513834,122.911861 -2.60350736,91.8673375 1.00192463,66.377642 C3.19797746,50.8519802 23.9722964,25.7308618 65.990405,14.9253949 C74.2520861,12.8008032 86.0917688,9.04859172 118.945232,5.87264256 C140.84754,3.75534312 177.458143,2.05126921 228.777039,0.760420845 C96.4057723,5.04775481 27.2240367,23.1491756 21.2318323,55.0646831 C19.1331388,66.2426841 31.0389762,87.0060056 50.8347822,105.772634 C64.8077755,119.019176 85.1493342,125.977723 95.4107363,142.661858 C112.945289,171.171494 158.250892,228.48842 231.327545,314.612636 L231.327545,314.612636 C242.980581,328.346277 262.375201,332.597853 278.704755,324.998392 L595.971606,177.348484 C596.865231,178.122682 597.459929,179.143586 597.755701,180.411197 C597.912471,181.08308 598.263677,183.017502 598.809318,186.214464 L598.809316,186.214464 C599.993158,193.150704 596.506431,200.04625 590.218399,203.204344 C584.540257,206.056126 577.203617,209.620689 568.208479,213.898033 C544.584807,225.131497 510.815561,241.3018 466.900742,262.408942 Z" id="Path-2" fill="#967D5B"></path>
            <g id="Butter_Group" transform="translate(170.463563, 29.612680)">
                <g id="Melt">
                    <use fill="#FDE49F" fill-rule="evenodd" xlink:href="#path-2"></use>
                    <use fill="black" fill-opacity="1" filter="url(#filter-3)" xlink:href="#path-2"></use>
                    <use stroke="#FAE8B1" stroke-width="9" xlink:href="#path-2"></use>
                </g>
                <g id="Butter">
                    <use fill="#FFC420" fill-rule="evenodd" style="mix-blend-mode: overlay;" xlink:href="#path-4"></use>
                    <path stroke="#F8DB8D" stroke-width="3" d="M88.0004404,42.1244262 L87.9566379,42.1246332 C72.8793751,41.9757308 66.1915942,49.7007797 71.8967119,60.1210308 L90.237475,95.4560554 C95.9770263,106.487328 112.818076,114.470005 127.78372,113.133775 L175.188869,107.670394 C190.15008,105.754454 196.889698,98.2173263 191.523105,90.2587141 L173.592621,59.5548204 C168.087437,49.0287778 151.328611,40.6987364 136.163645,41.1934426 L88.0004404,42.1244262 Z"></path>
                </g>
                <path d="M155.359649,119.85926 C116.219703,129.050353 90.5259048,118.796612 78.2782528,89.0980384 C70.0197934,69.0726109 54.1838928,51.1593368 76.1795221,43.1321949 C77.9701754,42.4787093 82.400235,41.7679776 89.4697009,41 C73.35527,42.6097183 68.9252104,50.113853 76.1795221,63.5124041 C78.0051595,66.8843153 85.3142501,80.9836565 87.8622296,85.3097063 C96.9935645,100.81321 97.2251617,112.165411 151.4159,108.178502 C163.30691,106.107521 196.548299,105.913389 192.911021,92.4750436 C191.723128,88.0862353 193.538962,93.6006187 193.836457,94.393187 C194.042979,94.9433907 194.4044,96.1403209 194.920719,97.9839777 C194.920719,104.868943 192.551771,109.56835 187.813876,112.082198 C183.07598,114.596046 172.257905,117.1884 155.359649,119.85926 Z" id="Path-3" stroke="#F8DB8D" fill="#FBCC4D"></path>
            </g>
            <g id="Grain" transform="translate(83.175386, 72.385111)" fill="#967D5B" stroke="#806A4C">
                <ellipse id="Oval" cx="1" cy="2.5" rx="1" ry="2.5"></ellipse>
            </g>
            <g id="Grain" transform="translate(83.175386, 72.385111)" fill="#967D5B" stroke="#806A4C">
                <ellipse id="Oval" cx="1" cy="2.5" rx="1" ry="2.5"></ellipse>
            </g>
            <g id="Grain" transform="translate(360.685912, 29.612680)" fill="#967D5B" stroke="#806A4C">
                <ellipse id="Oval" cx="1" cy="2.5" rx="1" ry="2.5"></ellipse>
            </g>
            <g id="Grain" transform="translate(550.084788, 175.203456)" fill="#967D5B" stroke="#806A4C">
                <ellipse id="Oval" cx="1" cy="2.5" rx="1" ry="2.5"></ellipse>
            </g>
            <g id="Grain" transform="translate(283.279415, 287.892361)" fill="#967D5B" stroke="#806A4C">
                <ellipse id="Oval" cx="1" cy="2.5" rx="1" ry="2.5"></ellipse>
            </g>
            <g id="Grain" transform="translate(446.327143, 170.268175)" fill="#967D5B" stroke="#806A4C">
                <ellipse id="Oval" cx="1" cy="2.5" rx="1" ry="2.5"></ellipse>
            </g>
            <g id="Grain" transform="translate(149.876729, 29.612680)" fill="#967D5B" stroke="#806A4C">
                <ellipse id="Oval" cx="1" cy="2.5" rx="1" ry="2.5"></ellipse>
            </g>
            <g id="Grain" transform="translate(147.406309, 147.236866)" fill="#967D5B" stroke="#806A4C">
                <ellipse id="Oval" cx="1" cy="2.5" rx="1" ry="2.5"></ellipse>
            </g>
        </g>
    </g>
</svg>